<svg width="62" height="60" viewBox="0 0 62 60" fill="none" xmlns="http://www.w3.org/2000/svg">
<path d="M21.5085 55.5144C12.0957 52.6435 3.22413 44.9604 2.59761 34.5829C2.35895 23.3189 6.87389 12.7377 14.1029 6.57703C21.2856 0.456056 31.1864 -1.34753 41.9923 4.95604C50.0063 9.78631 56.6417 17.6897 58.6934 27.042C59.6287 32.171 59.4892 37.9553 57.9123 42.9992C56.3362 48.0404 53.3476 52.2831 48.6123 54.4821L48.6034 54.4852L48.595 54.4897C40.4688 58.4661 29.9952 59.5808 21.6476 55.569L21.5798 55.5365L21.5085 55.5144Z" fill="white" stroke="#0E0D0E" stroke-width="2"></path>
<path fill-rule="evenodd" clip-rule="evenodd" d="M44.0204 41.7738C46.9667 38.6323 48.7677 34.4337 48.7677 29.8195C48.7677 20.0878 40.7618 12.201 30.8831 12.201C21.0065 12.201 13.0005 20.183 13.0005 29.9147C13.0005 39.9776 20.9296 46.9665 32.9429 46.9665H49.0005L44.0079 42.3594H32.9429C23.6124 42.3594 18.6297 36.684 18.6297 30.1962C18.6297 23.5273 24.1159 17.9368 30.8831 17.9368C37.6523 17.9368 43.1365 23.2452 43.1365 29.9142C43.1365 32.5761 42.262 34.9891 40.782 36.9825C40.5472 37.2978 40.1917 38.0293 40.8241 38.6502C41.456 39.2717 44.0204 41.7738 44.0204 41.7738Z" fill="#D84727"></path>
</svg>