<svg width="312" height="60" viewBox="0 0 312 60" fill="none" xmlns="http://www.w3.org/2000/svg">
<g clip-path="url(#clip0_673_145)">
<path fill-rule="evenodd" clip-rule="evenodd" d="M53.0342 50.7975C58.0714 45.4265 61.1507 38.2482 61.1507 30.3593C61.1507 13.7211 47.4629 0.237144 30.5734 0.237144C13.6874 0.237144 -0.000274658 13.8839 -0.000274658 30.5221C-0.000274658 47.7265 13.556 59.6754 34.0951 59.6754H61.5487L53.0128 51.7987H34.0951C18.1428 51.7987 9.62385 42.0955 9.62385 31.0034C9.62385 19.6015 19.0037 10.0436 30.5734 10.0436C42.1467 10.0436 51.523 19.1193 51.523 30.5212C51.523 35.0722 50.0278 39.1978 47.4976 42.6058C47.096 43.1449 46.4884 44.3955 47.5696 45.4571C48.6499 46.5196 53.0342 50.7975 53.0342 50.7975Z" fill="white"></path>
<path fill-rule="evenodd" clip-rule="evenodd" d="M302.95 30.6471C303.631 30.6471 304.273 30.7136 304.876 30.8449C305.48 30.977 306.04 31.1652 306.555 31.4094H311.399V33.1308C311.399 33.396 311.323 33.6034 311.174 33.7566C311.024 33.9089 310.769 34.0262 310.408 34.1076L309.232 34.3657C309.376 34.8235 309.448 35.2961 309.448 35.7844C309.448 36.5765 309.281 37.288 308.946 37.9181C308.61 38.5482 308.15 39.0839 307.568 39.5258C306.986 39.9687 306.297 40.3091 305.503 40.5472C304.708 40.7861 303.857 40.906 302.95 40.906C302.444 40.906 301.969 40.8754 301.526 40.8141C301.176 41.0198 301 41.2561 301 41.5221C301 41.7891 301.142 41.9816 301.425 42.0989C301.71 42.217 302.083 42.2993 302.547 42.3457C303.011 42.3912 303.542 42.4148 304.141 42.4148C304.74 42.4148 305.348 42.4428 305.967 42.498C306.586 42.5548 307.195 42.6494 307.792 42.7824C308.391 42.9137 308.923 43.1281 309.386 43.4239C309.851 43.7197 310.224 44.1144 310.508 44.6089C310.792 45.1034 310.934 45.7335 310.934 46.4976C310.934 47.2108 310.758 47.9092 310.408 48.5919C310.057 49.2754 309.541 49.8819 308.86 50.4114C308.18 50.9418 307.344 51.3671 306.353 51.6883C305.364 52.0095 304.228 52.1705 302.95 52.1705C301.691 52.1705 300.605 52.0532 299.693 51.8196C298.78 51.585 298.021 51.2778 297.418 50.8962C296.814 50.5147 296.368 50.0744 296.08 49.5765C295.79 49.0776 295.645 48.5586 295.645 48.0195C295.645 47.3176 295.862 46.726 296.296 46.242C296.729 45.7589 297.323 45.3799 298.076 45.1051C297.713 44.8715 297.426 44.573 297.209 44.2072C296.992 43.8422 296.884 43.3801 296.884 42.8227C296.884 42.589 296.925 42.3431 297.008 42.084C297.09 41.8258 297.219 41.5746 297.395 41.3313C297.57 41.0872 297.791 40.8544 298.06 40.6303C298.328 40.4071 298.648 40.2093 299.019 40.0369C298.183 39.6002 297.527 39.0208 297.046 38.2997C296.567 37.5777 296.327 36.7392 296.327 35.7844C296.327 34.9915 296.497 34.2773 296.837 33.642C297.178 33.0074 297.644 32.4692 298.238 32.0264C298.83 31.5844 299.529 31.2439 300.334 31.005C301.139 30.7661 302.011 30.6471 302.95 30.6471ZM300.815 45.8832C300.516 46.0862 300.269 46.3129 300.079 46.5623C299.888 46.8118 299.792 47.0944 299.792 47.4113C299.792 47.6353 299.842 47.8383 299.94 48.0221C300.038 48.2051 300.211 48.3635 300.458 48.4956C300.707 48.6278 301.039 48.7328 301.456 48.8089C301.874 48.8851 302.402 48.9236 303.042 48.9236C303.733 48.9236 304.301 48.8816 304.744 48.7993C305.188 48.7162 305.541 48.6015 305.804 48.4562C306.067 48.3109 306.25 48.1377 306.353 47.9346C306.456 47.7324 306.509 47.5119 306.509 47.2739C306.509 47.0139 306.428 46.8065 306.268 46.6516C306.109 46.4949 305.892 46.3698 305.619 46.277C305.345 46.1834 305.025 46.116 304.659 46.074C304.293 46.0337 303.898 46.0118 303.476 46.0118H302.16C301.707 46.0118 301.258 45.969 300.815 45.8832ZM273.705 30.6777C274.922 30.6777 276.031 30.8659 277.031 31.2413C278.033 31.6176 278.891 32.1559 279.609 32.8578C280.325 33.5588 280.882 34.4095 281.279 35.4107C281.677 36.411 281.875 37.5374 281.875 38.7872C281.875 40.0474 281.677 41.1826 281.279 42.1943C280.882 43.2051 280.325 44.0645 279.609 44.7699C278.891 45.4762 278.033 46.0197 277.031 46.4013C276.031 46.782 274.922 46.9728 273.705 46.9728C272.477 46.9728 271.361 46.782 270.355 46.4013C269.349 46.0197 268.483 45.4762 267.755 44.7699C267.028 44.0645 266.466 43.2051 266.068 42.1943C265.672 41.1826 265.473 40.0474 265.473 38.7872C265.473 37.5374 265.672 36.411 266.068 35.4107C266.466 34.4095 267.028 33.5588 267.755 32.8578C268.483 32.1559 269.349 31.6176 270.355 31.2413C271.361 30.8659 272.477 30.6777 273.705 30.6777ZM261.048 41.7288C261.43 41.7288 261.786 41.798 262.116 41.9345C262.446 42.0719 262.735 42.2575 262.982 42.4911C263.229 42.7248 263.423 42.9996 263.563 43.3138C263.702 43.6289 263.771 43.9702 263.771 44.3352C263.771 44.701 263.702 45.0449 263.563 45.3644C263.423 45.6847 263.229 45.9612 262.982 46.1949C262.735 46.4295 262.446 46.6124 262.116 46.7437C261.786 46.8758 261.43 46.9423 261.048 46.9423C260.656 46.9423 260.295 46.8758 259.965 46.7437C259.635 46.6124 259.348 46.4295 259.106 46.1949C258.863 45.9612 258.674 45.6847 258.533 45.3644C258.394 45.0449 258.325 44.701 258.325 44.3352C258.325 43.9702 258.394 43.6289 258.533 43.3138C258.674 42.9996 258.863 42.7248 259.106 42.4911C259.348 42.2575 259.635 42.0719 259.965 41.9345C260.295 41.798 260.656 41.7288 261.048 41.7288ZM293.387 30.6169C294.119 30.6169 294.707 30.7893 295.151 31.135L294.532 34.6103C294.491 34.823 294.408 34.9735 294.284 35.0602C294.161 35.1468 293.997 35.1888 293.79 35.1888C293.614 35.1888 293.409 35.1661 293.171 35.1206C292.933 35.0759 292.634 35.0523 292.273 35.0523C291.014 35.0523 290.025 35.7131 289.301 37.0337V46.729H284.506V30.9214H287.352C287.59 30.9214 287.788 30.9424 287.948 30.9827C288.108 31.0238 288.242 31.0868 288.35 31.1735C288.459 31.2593 288.541 31.3739 288.598 31.5157C288.655 31.6583 288.704 31.8316 288.745 32.0347L289.008 33.5129C289.595 32.6184 290.256 31.9121 290.989 31.394C291.721 30.8759 292.52 30.6169 293.387 30.6169ZM247.728 16.5237C248.644 16.5237 249.537 16.5946 250.405 16.7355C251.274 16.8772 252.098 17.0864 252.877 17.3621C253.656 17.6386 254.385 17.9686 255.062 18.3519C255.738 18.7361 256.344 19.1711 256.877 19.656L255.154 22.8285C254.949 23.1523 254.733 23.3939 254.508 23.5558C254.283 23.7177 253.991 23.7982 253.636 23.7982C253.322 23.7982 252.983 23.7011 252.62 23.5059C252.258 23.3107 251.848 23.0911 251.39 22.8486C250.931 22.6062 250.408 22.3874 249.82 22.1922C249.232 21.9971 248.562 21.8991 247.81 21.8991C246.511 21.8991 245.544 22.1721 244.908 22.7174C244.271 23.2626 243.954 24.0004 243.954 24.9298C243.954 25.5232 244.144 26.0151 244.528 26.4054C244.911 26.7966 245.413 27.1327 246.036 27.4154C246.659 27.6989 247.369 27.958 248.17 28.1934C248.969 28.4297 249.786 28.6923 250.62 28.9819C251.454 29.2716 252.272 29.6121 253.072 30.0024C253.872 30.3936 254.582 30.8907 255.206 31.4981C255.828 32.1037 256.33 32.8415 256.713 33.7106C257.097 34.5796 257.288 35.6272 257.288 36.8534C257.288 38.2143 257.049 39.4877 256.57 40.6727C256.091 41.8586 255.396 42.8921 254.487 43.7743C253.578 44.6574 252.456 45.3505 251.123 45.8555C249.789 46.3605 248.276 46.6134 246.58 46.6134C245.649 46.6134 244.702 46.5189 243.738 46.3308C242.774 46.1426 241.841 45.8757 240.938 45.5326C240.036 45.1886 239.187 44.7808 238.395 44.3099C237.601 43.8382 236.911 43.3131 236.323 42.7337L238.374 39.5402C238.524 39.2986 238.737 39.1026 239.009 38.9547C239.283 38.8068 239.577 38.7324 239.892 38.7324C240.302 38.7324 240.716 38.861 241.134 39.1166C241.55 39.373 242.022 39.6557 242.549 39.9655C243.075 40.2753 243.68 40.558 244.364 40.8136C245.048 41.0691 245.854 41.1978 246.785 41.1978C248.043 41.1978 249.021 40.9247 249.718 40.3786C250.416 39.8334 250.765 38.9687 250.765 37.7828C250.765 37.0958 250.573 36.5374 250.19 36.1051C249.806 35.6745 249.304 35.3174 248.682 35.0347C248.06 34.752 247.352 34.5017 246.558 34.2864C245.766 34.0711 244.952 33.8322 244.118 33.5688C243.284 33.3062 242.47 32.9833 241.676 32.6C240.884 32.2149 240.176 31.7099 239.553 31.0833C238.93 30.4575 238.428 29.676 238.045 28.7395C237.663 27.8039 237.472 26.6478 237.472 25.2738C237.472 24.1693 237.697 23.0911 238.148 22.0408C238.599 20.9897 239.263 20.0533 240.139 19.2315C241.014 18.4097 242.087 17.7533 243.359 17.2614C244.63 16.7696 246.087 16.5237 247.728 16.5237ZM88.9144 16.8475C91.0741 16.8475 92.9167 17.0663 94.4421 17.5039C95.9666 17.9415 97.2112 18.5515 98.1752 19.3321C99.1391 20.1146 99.84 21.037 100.279 22.1012C100.715 23.1654 100.935 24.3242 100.935 25.5775C100.935 26.5332 100.804 27.4364 100.545 28.2844C100.284 29.1333 99.8987 29.9184 99.3852 30.6387C98.8726 31.3607 98.2445 32.0031 97.4982 32.5684C96.7528 33.1347 95.8946 33.5994 94.9245 33.9635C95.3891 34.1928 95.8236 34.4755 96.2269 34.8124C96.6302 35.1494 96.9829 35.559 97.2832 36.0447L103.642 46.2905H97.3649C96.2029 46.2905 95.3678 45.859 94.8623 44.9978L89.8988 36.449C89.6793 36.0718 89.4226 35.8023 89.1294 35.6404C88.8353 35.4793 88.4213 35.3979 87.8883 35.3979H86.1239V46.2905H79.1899V16.8475H88.9144ZM124.895 16.8471V22.1009H112.627V28.972H122.022V34.0235H112.627V41.0364H124.895V46.291H105.653V16.8471H124.895ZM131.95 16.8471C132.552 16.8471 133.044 16.9819 133.427 17.2506C133.81 17.521 134.083 17.8772 134.248 18.3227L140.032 34.0839C140.292 34.7709 140.556 35.5192 140.822 36.3279C141.089 37.1366 141.338 37.9846 141.571 38.8738C141.763 37.9846 141.984 37.1366 142.237 36.3279C142.49 35.5192 142.74 34.7709 142.987 34.0839L148.73 18.3227C148.867 17.9446 149.133 17.605 149.53 17.3022C149.926 16.9985 150.412 16.8471 150.986 16.8471H156.607L144.628 46.291H138.351L126.37 16.8471H131.95ZM166.66 16.8467V46.2906H159.684V16.8467H166.66ZM191.44 16.8471V22.1009H179.173V28.972H188.568V34.0235H179.173V41.0364H191.44V46.291H172.198V16.8471H191.44ZM198.947 16.8471C199.548 16.8471 200.052 16.9819 200.455 17.2506C200.857 17.521 201.121 17.8772 201.245 18.3227L205.347 33.6805C205.483 34.1793 205.62 34.7106 205.758 35.2777C205.894 35.843 205.996 36.4355 206.064 37.0552C206.202 36.4215 206.353 35.8264 206.517 35.2672C206.681 34.7079 206.837 34.1793 206.987 33.6805L211.829 18.3227C211.953 17.9446 212.216 17.605 212.619 17.3022C213.021 16.9985 213.511 16.8471 214.086 16.8471H216.137C216.739 16.8471 217.235 16.9784 217.624 17.241C218.014 17.5035 218.284 17.8641 218.435 18.3227L223.235 33.6805C223.385 34.1522 223.542 34.6545 223.706 35.1858C223.87 35.7179 224.014 36.2876 224.137 36.8933C224.247 36.3016 224.359 35.7345 224.476 35.1963C224.592 34.658 224.712 34.1522 224.835 33.6805L228.937 18.3227C229.047 17.9315 229.306 17.5884 229.717 17.2917C230.127 16.995 230.62 16.8471 231.194 16.8471H236.651L227.419 46.291H221.142L215.522 28.0425C215.426 27.759 215.327 27.45 215.224 27.1131C215.122 26.7761 215.022 26.419 214.927 26.0418C214.831 26.419 214.732 26.7761 214.63 27.1131C214.527 27.45 214.427 27.759 214.332 28.0425L208.629 46.291H202.353L193.121 16.8471H198.947ZM273.705 34.1837C272.571 34.1837 271.74 34.5644 271.213 35.3267C270.688 36.089 270.425 37.2521 270.425 38.8178C270.425 40.3826 270.688 41.5493 271.213 42.3159C271.74 43.0835 272.571 43.4668 273.705 43.4668C274.809 43.4668 275.621 43.0835 276.142 42.3159C276.663 41.5493 276.924 40.3826 276.924 38.8178C276.924 37.2521 276.663 36.089 276.142 35.3267C275.621 34.5644 274.809 34.1837 273.705 34.1837ZM302.95 33.8327C302.155 33.8327 301.58 34.0157 301.224 34.3815C300.868 34.7473 300.691 35.2505 300.691 35.8912C300.691 36.1949 300.734 36.4758 300.821 36.7287C300.909 36.9834 301.046 37.2048 301.232 37.393C301.417 37.5803 301.652 37.7273 301.936 37.8341C302.219 37.9409 302.558 37.9943 302.95 37.9943C303.744 37.9943 304.319 37.7982 304.674 37.407C305.03 37.0167 305.209 36.5108 305.209 35.8912C305.209 35.2505 305.03 34.7473 304.674 34.3815C304.319 34.0157 303.744 33.8327 302.95 33.8327ZM88.9144 21.9594H86.1239V30.6894H88.9144C89.8579 30.6894 90.661 30.5721 91.3238 30.3358C91.9874 30.1004 92.5302 29.774 92.9549 29.3565C93.3787 28.9391 93.686 28.4498 93.8779 27.8906C94.0698 27.3322 94.1658 26.7292 94.1658 26.0824C94.1658 24.7889 93.7376 23.7781 92.8829 23.0508C92.0283 22.3235 90.7054 21.9594 88.9144 21.9594Z" fill="white"></path>
</g>
<defs>
<clipPath id="clip0_673_145">
<rect width="312" height="59.9409" fill="white"></rect>
</clipPath>
</defs>
</svg>