<svg width="62" height="60" viewBox="0 0 62 60" fill="none" xmlns="http://www.w3.org/2000/svg">
<path fill-rule="evenodd" clip-rule="evenodd" d="M53.0344 50.5604C58.0717 45.1894 61.1509 38.0111 61.1509 30.1222C61.1509 13.484 47.4632 0 30.5737 0C13.6877 0 0 13.6468 0 30.2849C0 47.4893 13.5562 59.4383 34.0953 59.4383H61.5489L53.0131 51.5616H34.0953C18.1431 51.5616 9.62413 41.8584 9.62413 30.7663C9.62413 19.3644 19.0039 9.80646 30.5737 9.80646C42.147 9.80646 51.5232 18.8821 51.5232 30.2841C51.5232 34.835 50.0281 38.9607 47.4979 42.3686C47.0963 42.9077 46.4886 44.1584 47.5698 45.22C48.6501 46.2825 53.0344 50.5604 53.0344 50.5604Z" fill="white"></path>
</svg>