<svg width="62" height="60" viewBox="0 0 62 60" fill="none" xmlns="http://www.w3.org/2000/svg">
<circle cx="29.72" cy="29.9669" r="29.72" fill="#101651"></circle>
<path fill-rule="evenodd" clip-rule="evenodd" d="M42.4766 41.8891C45.3282 38.8486 47.0714 34.785 47.0714 30.3191C47.0714 20.9004 39.3228 13.2671 29.7617 13.2671C20.2026 13.2671 12.4541 20.9925 12.4541 30.4113C12.4541 40.1506 20.1282 46.9149 31.7553 46.9149H47.2967L42.4646 42.4559H31.7553C22.7248 42.4559 17.9023 36.963 17.9023 30.6838C17.9023 24.2292 23.2121 18.8185 29.7617 18.8185C36.3133 18.8185 41.6212 23.9562 41.6212 30.4108C41.6212 32.9871 40.7747 35.3226 39.3424 37.2518C39.1151 37.557 38.7711 38.265 39.3832 38.866C39.9947 39.4674 42.4766 41.8891 42.4766 41.8891Z" fill="#D84727"></path>
</svg>