<svg width="62" height="63" viewBox="0 0 62 63" fill="none" xmlns="http://www.w3.org/2000/svg">
<path d="M59.6516 28.3901C61.5836 38.9465 59.1084 52.267 49.035 56.9448C40.7302 61.0086 29.9465 62.1966 21.2604 58.0221C11.631 55.0852 2.26965 47.132 1.61754 36.1209C1.11791 13.0244 20.1053 -7.44006 42.4558 5.60263C50.6628 10.5468 57.5265 18.6796 59.6516 28.3901Z" fill="white"></path>
<path d="M21.0158 58.7364C11.4018 55.7837 1.8663 47.8522 0.922808 36.6796L0.884047 36.1439L0.883155 36.1293L0.883531 36.1141C0.631194 24.4492 5.2566 13.4152 12.8124 6.86581C20.403 0.286307 30.9258 -1.7358 42.2656 4.6321L42.2705 4.63566L42.7937 4.93477L42.8015 4.93877L42.8089 4.94366C50.8953 9.8152 57.7446 17.7558 60.1492 27.3135L60.1525 27.325L60.3655 28.2301L60.3696 28.2497L60.3732 28.2702C61.3589 33.656 61.2242 39.7568 59.5448 45.1287C57.8631 50.5081 54.6145 55.201 49.3518 57.6448C40.9293 61.7619 29.9427 63.0043 21.0158 58.7364ZM4.31188 36.1036C4.87841 45.0827 12.4203 52.1266 21.0989 55.0616L21.9421 55.3336L22.085 55.3771L22.1377 55.3931L22.189 55.4171L22.3245 55.4819L22.3254 55.4824C30.0809 59.2096 40.0113 58.2234 47.8247 54.4002L47.8301 54.3975L47.8478 54.3891L47.8588 54.3837L47.8655 54.3806L47.8719 54.3784C52.0802 52.4241 54.8089 48.6308 56.2792 43.9278C57.7532 39.2129 57.8967 33.7471 57.0125 28.876C55.0861 20.1583 48.8569 12.663 41.1887 8.03458C31.0269 2.10778 21.8823 3.82005 15.2156 9.50112C8.42088 15.2915 4.0911 25.3348 4.31188 36.1036Z" fill="#0E0D0E" stroke="white" stroke-width="1.5"></path>
<path fill-rule="evenodd" clip-rule="evenodd" d="M44.0204 43.3036C46.9667 40.162 48.7677 35.9635 48.7677 31.3492C48.7677 21.6176 40.7618 13.7308 30.8831 13.7308C21.0065 13.7308 13.0005 21.7128 13.0005 31.4444C13.0005 41.5073 20.9296 48.4962 32.9429 48.4962H49.0005L44.0079 43.8892H32.9429C23.6124 43.8892 18.6297 38.2138 18.6297 31.726C18.6297 25.057 24.1159 19.4666 30.8831 19.4666C37.6523 19.4666 43.1365 24.7749 43.1365 31.4439C43.1365 34.1058 42.262 36.5189 40.782 38.5122C40.5472 38.8275 40.1917 39.559 40.8241 40.18C41.456 40.8014 44.0204 43.3036 44.0204 43.3036Z" fill="#D84727"></path>
</svg>