<svg xmlns="http://www.w3.org/2000/svg" width="24" height="22.846" viewBox="0 0 24 22.846" fill="none">
  <path d="M 11.89 19.112 L 4.839 22.819 C 4.666 22.909 4.464 22.762 4.497 22.57 L 5.844 14.719 C 5.857 14.643 5.832 14.565 5.776 14.511 L 0.071 8.951 C -0.068 8.814 0.009 8.577 0.202 8.549 L 8.086 7.403 C 8.162 7.392 8.229 7.344 8.263 7.274 L 11.789 0.131 C 11.875 -0.044 12.125 -0.044 12.211 0.131 L 15.737 7.274 C 15.771 7.344 15.838 7.392 15.914 7.403 L 23.798 8.549 C 23.991 8.577 24.068 8.814 23.929 8.951 L 18.224 14.511 C 18.169 14.565 18.143 14.643 18.156 14.719 L 19.503 22.57 C 19.536 22.762 19.334 22.909 19.161 22.819 L 12.11 19.112 C 12.041 19.076 11.959 19.076 11.89 19.112 Z" fill="currentColor" fill-rule="evenodd"></path>
</svg>